<svg width="33" height="33" viewBox="0 0 33 33" fill="none" xmlns="http://www.w3.org/2000/svg">
<path d="M29.2188 12.1192V9.29223C29.2187 8.16794 28.7721 7.0897 27.9771 6.29471C27.1821 5.49972 26.1039 5.0531 24.9796 5.0531H20.7391M20.7391 30.4906H24.9796C26.1039 30.4906 27.1821 30.044 27.9771 29.249C28.7721 28.454 29.2187 27.3758 29.2188 26.2515V23.4245M3.78125 23.4245V26.2515C3.78125 27.3758 4.22787 28.454 5.02286 29.249C5.81785 30.044 6.89609 30.4906 8.02038 30.4906H12.2609M12.2609 5.0531H8.02038C7.46369 5.0531 6.91245 5.16275 6.39813 5.37578C5.88382 5.58882 5.4165 5.90107 5.02286 6.29471C4.62922 6.68835 4.31697 7.15567 4.10393 7.66998C3.8909 8.1843 3.78125 8.73554 3.78125 9.29223V12.1192" stroke="#4D4D4D" stroke-width="1.5" stroke-linecap="round" stroke-linejoin="round"/>
<path d="M24.9932 30.4906C24.9932 26.4756 20.5162 23.2114 16.4998 23.2114C12.4848 23.2114 8.00781 26.4743 8.00781 30.4906M16.4998 19.5718C17.1372 19.5718 17.7684 19.4462 18.3573 19.2023C18.9461 18.9584 19.4812 18.6008 19.9319 18.1501C20.3826 17.6994 20.7402 17.1643 20.9841 16.5755C21.228 15.9866 21.3536 15.3554 21.3536 14.718C21.3536 14.0806 21.228 13.4494 20.9841 12.8606C20.7402 12.2717 20.3826 11.7366 19.9319 11.2859C19.4812 10.8352 18.9461 10.4777 18.3573 10.2337C17.7684 9.9898 17.1372 9.86426 16.4998 9.86426C15.2125 9.86426 13.9779 10.3756 13.0677 11.2859C12.1574 12.1961 11.6461 13.4307 11.6461 14.718C11.6461 16.0053 12.1574 17.2399 13.0677 18.1501C13.9779 19.0604 15.2125 19.5718 16.4998 19.5718Z" stroke="#4D4D4D" stroke-width="1.5" stroke-linecap="round" stroke-linejoin="round"/>
</svg>
