<svg width="47" height="47" viewBox="0 0 47 47" fill="none" xmlns="http://www.w3.org/2000/svg">
<path d="M23.8759 15.2162V12.2787C23.8759 11.4562 24.1598 10.7603 24.7277 10.1911C25.2957 9.62189 25.9909 9.33793 26.8134 9.33924H29.7509V12.2767C29.7509 13.0992 29.4669 13.7944 28.899 14.3624C28.3311 14.9303 27.6359 15.2142 26.8134 15.2142L23.8759 15.2162ZM14.2957 25.0079C12.9405 25.0079 11.7884 24.5326 10.8392 23.5822C9.8901 22.6331 9.41553 21.4803 9.41553 20.1238V15.2162H14.3251C15.6815 15.2162 16.8343 15.6908 17.7835 16.6399C18.7326 17.589 19.2072 18.7418 19.2072 20.0983V25.0079H14.2957ZM31.3332 40.6354C30.1673 40.6354 29.0537 40.4395 27.9923 40.0479C26.9309 39.6562 25.9772 39.1177 25.1312 38.4322L22.2328 41.3286C22.05 41.5114 21.8255 41.6093 21.5592 41.6224C21.2928 41.6354 21.0559 41.5375 20.8483 41.3286C20.6407 41.1197 20.5428 40.8828 20.5545 40.6177C20.5663 40.3527 20.6642 40.1275 20.8483 39.9421L23.7447 37.0457C23.0592 36.1997 22.5207 35.2467 22.129 34.1866C21.7374 33.1265 21.5415 32.0122 21.5415 30.8437C21.5415 28.1321 22.4933 25.8206 24.3968 23.9092C26.3016 21.9966 28.6137 21.0403 31.3332 21.0403H41.0994V30.8437C41.0994 33.5553 40.1463 35.8655 38.2402 37.7742C36.3341 39.683 34.0318 40.6367 31.3332 40.6354ZM31.3332 38.677C33.52 38.677 35.3641 37.91 36.8655 36.376C38.3669 34.842 39.1176 32.9979 39.1176 30.8437V23.0104H31.3332C29.179 23.0104 27.3349 23.7695 25.8009 25.2879C24.2669 26.8063 23.4999 28.6582 23.4999 30.8437C23.4999 31.7445 23.6461 32.6049 23.9385 33.4248C24.231 34.2447 24.6324 34.9862 25.1429 35.6494L30.6399 30.1504C30.8488 29.9416 31.0799 29.8371 31.3332 29.8371C31.5865 29.8371 31.8176 29.9416 32.0264 30.1504C32.2353 30.3593 32.3398 30.5904 32.3398 30.8437C32.3398 31.097 32.2353 31.3281 32.0264 31.5369L26.5274 37.034C27.1907 37.5445 27.929 37.9459 28.7423 38.2384C29.557 38.5308 30.4206 38.677 31.3332 38.677Z" fill="#4D4D4D"/>
</svg>
