<svg width="20" height="20" viewBox="0 0 20 20" fill="none" xmlns="http://www.w3.org/2000/svg">
<path d="M9.91602 11.2529C10.1396 11.2379 10.3634 11.2829 10.5635 11.3838C10.7636 11.4848 10.933 11.6383 11.0537 11.8271C11.1743 12.016 11.2415 12.2341 11.249 12.458C11.2566 12.682 11.2043 12.904 11.0967 13.1006C10.989 13.2972 10.8296 13.4609 10.6367 13.5752C10.4439 13.6894 10.2241 13.75 10 13.75L9.88281 13.7441C9.61131 13.7187 9.35439 13.6052 9.15234 13.4189C8.92139 13.2058 8.77905 12.9129 8.75391 12.5996L8.72754 12.2725L8.86523 11.9746C8.9594 11.7712 9.10731 11.5967 9.29199 11.4697C9.47664 11.3428 9.69248 11.2681 9.91602 11.2529Z" fill="white" stroke="white" stroke-width="1.5"/>
</svg>
