<svg width="20" height="20" viewBox="0 0 20 20" fill="none" xmlns="http://www.w3.org/2000/svg">
<g clip-path="url(#clip0_266_532)">
<path d="M13.4383 3.42584L7.895 6.08751C7.47661 6.29142 7.00075 6.34498 6.5475 6.23917C6.35626 6.19175 6.16302 6.15282 5.96833 6.12251C4.4475 5.95001 3.5 7.15334 3.5 8.53751V9.29751C3.5 10.6808 4.4475 11.885 5.96833 11.7108C6.16322 11.682 6.35652 11.6434 6.5475 11.595C7.00084 11.4895 7.47671 11.5433 7.895 11.7475L13.4383 14.4083C14.7108 15.0192 15.3475 15.325 16.0567 15.0867C16.7667 14.8483 17.01 14.3375 17.4967 13.3158C18.1571 11.9437 18.5001 10.4404 18.5001 8.91751C18.5001 7.39466 18.1571 5.89136 17.4967 4.51917C17.01 3.49751 16.7667 2.98584 16.0567 2.74834C15.3475 2.51001 14.7108 2.81417 13.4383 3.42584Z" stroke="white" stroke-width="1.5" stroke-linecap="round" stroke-linejoin="round"/>
<path d="M7.25005 11.4167V6.41669M10.5484 18.3084L9.30588 19.3334C6.50422 17.1117 6.84672 16.0525 6.84672 11.8334H7.79172C8.17505 14.2167 9.07922 15.3467 10.3275 16.1642C11.0959 16.6675 11.2542 17.7267 10.5484 18.3084Z" stroke="white" stroke-width="1.5" stroke-linecap="round" stroke-linejoin="round"/>
</g>
<defs>
<clipPath id="clip0_266_532">
<rect width="20" height="20" fill="white"/>
</clipPath>
</defs>
</svg>
