<svg width="34" height="34" viewBox="0 0 34 34" fill="none" xmlns="http://www.w3.org/2000/svg">
<g clip-path="url(#clip0_266_581)">
<path d="M20.4147 19.3557C19.4773 20.4243 18.3359 21.2986 17.0512 21.9324V25.5753C17.0512 25.8973 16.9232 26.2062 16.6955 26.4339C16.4678 26.6616 16.1589 26.7896 15.8369 26.7896H8.55117C8.22912 26.7896 7.92026 26.6616 7.69254 26.4339C7.46481 26.2062 7.33688 25.8973 7.33688 25.5753V21.9324C4.77801 20.6552 2.82178 18.4257 1.888 15.7225C0.95422 13.0193 1.1173 10.0578 2.34224 7.47346C3.56718 4.88913 5.75637 2.88795 8.44001 1.89937C11.1236 0.910791 14.0879 1.01359 16.6966 2.1857M7.33688 32.7857H17.0512" stroke="#4D4D4D" stroke-linecap="round" stroke-linejoin="round"/>
<path d="M17.9596 9.554C17.1072 9.40586 17.1072 8.18186 17.9596 8.03371C19.469 7.77103 20.8658 7.06482 21.9722 6.00514C23.0786 4.94546 23.8444 3.5803 24.1719 2.08371L24.2229 1.84571C24.4075 1.003 25.6072 0.998142 25.7991 1.83843L25.8622 2.11286C26.2023 3.60267 26.975 4.95878 28.0833 6.01089C29.1916 7.063 30.586 7.7642 32.0915 8.02643C32.9488 8.177 32.9488 9.40586 32.0915 9.55643C30.5865 9.81909 29.1925 10.5205 28.0847 11.5726C26.9769 12.6246 26.2046 13.9805 25.8646 15.47L25.8015 15.7444C25.6096 16.5847 24.4099 16.5799 24.2253 15.7371L24.1768 15.5016C23.8489 14.0043 23.0824 12.6387 21.9751 11.5789C20.8678 10.5192 19.4698 9.81581 17.9596 9.554Z" stroke="#4D4D4D" stroke-linecap="round" stroke-linejoin="round"/>
</g>
<defs>
<clipPath id="clip0_266_581">
<rect width="34" height="34" fill="white"/>
</clipPath>
</defs>
</svg>
