<svg width="28" height="34" viewBox="0 0 28 34" fill="none" xmlns="http://www.w3.org/2000/svg">
<path d="M2.49133 33.1274C1.78114 33.1274 1.18863 32.8439 0.713792 32.2771C0.238958 31.7102 0.00102778 31.0029 0 30.1551V2.97226C0 2.12567 0.237931 1.41896 0.713792 0.852109C1.18965 0.285263 1.78165 0.00122694 2.48979 0H25.2602C25.9694 0 26.5614 0.284037 27.0362 0.852109C27.511 1.42018 27.749 2.12751 27.75 2.9741V30.1551C27.75 31.0017 27.5121 31.709 27.0362 32.2771C26.5603 32.8452 25.9683 33.1286 25.2602 33.1274H2.49133ZM2.49133 31.2869H25.2602C25.4966 31.2869 25.714 31.1692 25.9123 30.9336C26.1107 30.698 26.2094 30.4379 26.2083 30.1533V2.9741C26.2083 2.69068 26.1097 2.43057 25.9123 2.19377C25.715 1.95697 25.4976 1.83918 25.2602 1.84041H2.48979C2.2534 1.84041 2.03603 1.95819 1.83767 2.19377C1.63931 2.42934 1.54064 2.68884 1.54167 2.97226V30.1551C1.54167 30.4373 1.64033 30.6968 1.83767 30.9336C2.035 31.1704 2.25237 31.2882 2.48979 31.2869M6.16667 26.4724H21.5833C22.4312 26.4724 22.9991 26.2123 23.2869 25.6921C23.5747 25.1719 23.7185 24.583 23.7185 23.9253V16.7772C23.7185 16.0422 23.5351 15.3711 23.1682 14.7638C22.8012 14.1564 22.3418 13.7442 21.7899 13.527V11.751C21.7899 10.5474 21.4297 9.51491 20.7092 8.6536C19.9867 7.79229 19.1218 7.36164 18.1146 7.36164H9.63542C8.62819 7.36164 7.76332 7.79229 7.04079 8.6536C6.31929 9.51491 5.95854 10.5474 5.95854 11.751V13.527C5.40765 13.7442 4.94875 14.1564 4.58183 14.7638C4.21492 15.3711 4.03146 16.0422 4.03146 16.7772V23.9253C4.03146 24.9375 4.24986 25.6154 4.68667 25.959C5.12347 26.3025 5.61681 26.4724 6.16667 26.4724ZM6.16667 24.8455C5.93542 24.8455 5.74888 24.7615 5.60704 24.5934C5.46521 24.4253 5.39481 24.2026 5.39583 23.9253V16.7772C5.39583 16.2557 5.54383 15.8183 5.83983 15.465C6.13583 15.1116 6.50172 14.9349 6.9375 14.9349C7.37328 14.9349 7.73968 15.1116 8.03671 15.465C8.33374 15.8183 8.48122 16.2557 8.47917 16.7772V20.458H19.2708V16.7772C19.2708 16.2557 19.4188 15.8183 19.7148 15.465C20.0108 15.1116 20.3767 14.9349 20.8125 14.9349C21.2483 14.9349 21.6147 15.1116 21.9117 15.465C22.2087 15.8183 22.3562 16.2557 22.3542 16.7772V23.9253C22.3542 24.2014 22.2838 24.4241 22.143 24.5934C22.0022 24.7627 21.8156 24.8467 21.5833 24.8455H6.16667ZM9.84354 18.8274V16.7772C9.84354 15.8631 9.59328 15.0889 9.09275 14.4546C8.59222 13.8202 8.00228 13.4681 7.32292 13.3982V11.7492C7.32292 10.9517 7.54132 10.2922 7.97813 9.77073C8.41493 9.24928 8.96736 8.98856 9.63542 8.98856H18.1146C18.7826 8.98856 19.3351 9.24928 19.7719 9.77073C20.2087 10.2922 20.4271 10.9517 20.4271 11.7492V13.3982C19.7467 13.4669 19.1567 13.8184 18.6572 14.4527C18.1567 15.0871 17.9065 15.8613 17.9065 16.7753V18.8274H9.84354Z" fill="#4D4D4D"/>
</svg>
