<svg width="29" height="29" viewBox="0 0 29 29" fill="none" xmlns="http://www.w3.org/2000/svg">
<path d="M14.5002 20.3353L8.98113 12.5416C8.07776 11.475 7.496 10.1737 7.30361 8.78924C7.11123 7.4048 7.31613 5.99418 7.89445 4.72169C8.47277 3.44919 9.40071 2.36718 10.5702 1.60168C11.7397 0.836179 13.1026 0.418687 14.5002 0.397827C16.4375 0.416972 18.2883 1.20312 19.6472 2.58408C21.0061 3.96504 21.7623 5.82825 21.7502 7.76564C21.7509 9.45574 21.1755 11.0956 20.1189 12.4147L14.5002 20.3353ZM14.5002 2.21033C13.0428 2.22706 11.6516 2.82148 10.6321 3.86306C9.61265 4.90464 9.04818 6.30823 9.06269 7.76564C9.06954 9.09571 9.54802 10.3802 10.413 11.3906L14.5002 17.1816L18.6961 11.2728C19.4937 10.2773 19.9313 9.04128 19.9377 7.76564C19.9522 6.30823 19.3877 4.90464 18.3682 3.86306C17.3487 2.82148 15.9576 2.22706 14.5002 2.21033Z" fill="#4D4D4D"/>
<path d="M14.5 9.96875C15.501 9.96875 16.3125 9.15727 16.3125 8.15625C16.3125 7.15523 15.501 6.34375 14.5 6.34375C13.499 6.34375 12.6875 7.15523 12.6875 8.15625C12.6875 9.15727 13.499 9.96875 14.5 9.96875Z" fill="#4D4D4D"/>
<path d="M25.375 10.875H23.5625V12.6875H25.375V25.375H3.625V12.6875H5.4375V10.875H3.625C3.1443 10.875 2.68328 11.066 2.34337 11.4059C2.00346 11.7458 1.8125 12.2068 1.8125 12.6875V25.375C1.8125 25.8557 2.00346 26.3167 2.34337 26.6566C2.68328 26.9965 3.1443 27.1875 3.625 27.1875H25.375C25.8557 27.1875 26.3167 26.9965 26.6566 26.6566C26.9965 26.3167 27.1875 25.8557 27.1875 25.375V12.6875C27.1875 12.2068 26.9965 11.7458 26.6566 11.4059C26.3167 11.066 25.8557 10.875 25.375 10.875Z" fill="#4D4D4D"/>
</svg>
