<svg width="30" height="30" viewBox="0 0 30 30" fill="none" xmlns="http://www.w3.org/2000/svg">
<path d="M27.55 4H5.57C4.70297 4 4 4.70297 4 5.57V19.7369C4 20.6039 4.70297 21.3069 5.57 21.3069H8.69861V25.215C8.69856 25.3697 8.74425 25.5209 8.82994 25.6497C8.91564 25.7785 9.0375 25.8791 9.18021 25.9388C9.27627 25.9791 9.3794 25.9999 9.48359 26C9.6895 26.0001 9.88719 25.9192 10.0339 25.7747L14.5727 21.3069H27.55C28.417 21.3069 29.12 20.6039 29.12 19.7369V5.57C29.12 4.70299 28.417 4 27.55 4ZM27.55 19.7365H13.9299L10.2686 23.3404V19.7365H5.57V5.57H27.55V19.7365ZM9.495 13.4545H23.625C24.0583 13.4545 24.41 13.1029 24.41 12.6695C24.41 12.2362 24.0583 11.8845 23.625 11.8845H9.495C9.06168 11.8845 8.71 12.2362 8.71 12.6695C8.71 13.1029 9.06168 13.4545 9.495 13.4545ZM9.495 10.3145H23.625C24.0583 10.3145 24.41 9.96285 24.41 9.52953C24.41 9.09622 24.0583 8.74454 23.625 8.74454H9.495C9.06168 8.74454 8.71 9.09622 8.71 9.52953C8.71 9.96285 9.06168 10.3145 9.495 10.3145ZM9.495 16.5945H18.915C19.3483 16.5945 19.7 16.2428 19.7 15.8095C19.7 15.3762 19.3483 15.0245 18.915 15.0245H9.495C9.06168 15.0245 8.71 15.3762 8.71 15.8095C8.71 16.2428 9.06168 16.5945 9.495 16.5945Z" fill="black"/>
</svg>
